HIERARCHY
ROOT Hips
{
    OFFSET   0.000000   0.000000   0.000000
    CHANNELS 6 Xposition Yposition Zposition Zrotation Xrotation Yrotation
    JOINT Chest
    {
        OFFSET   0.000000   8.007230   0.000000
        CHANNELS 3 Zrotation Xrotation Yrotation
        JOINT Chest2
        {
            OFFSET   0.000000  22.077100   0.000000
            CHANNELS 3 Zrotation Xrotation Yrotation
            JOINT Neck
            {
                OFFSET   0.000000  23.254800   0.000000
                CHANNELS 3 Zrotation Xrotation Yrotation
                JOINT Head
                {
                    OFFSET   0.000010  14.370000   1.956600
                    CHANNELS 3 Zrotation Xrotation Yrotation
                    End Site
                    {
                        OFFSET   0.000000  19.566000   0.000000
                    }
                }
            }
            JOINT LeftCollar
            {
                OFFSET   3.911900  19.017000  -0.467062
                CHANNELS 3 Zrotation Xrotation Yrotation
                JOINT LeftShoulder
                {
                    OFFSET  10.383700   0.000000   0.000000
                    CHANNELS 3 Zrotation Xrotation Yrotation
                    JOINT LeftElbow
                    {
                        OFFSET  26.662100   0.001193   0.000835
                        CHANNELS 3 Zrotation Xrotation Yrotation
                        JOINT LeftWrist
                        {
                            OFFSET  28.869000  -0.000058  -0.000075
                            CHANNELS 3 Zrotation Xrotation Yrotation
                            JOINT LeftFinger0
                            {
                                OFFSET   2.044660  -2.323460   3.252850
                                CHANNELS 3 Zrotation Xrotation Yrotation
                                JOINT LeftFinger01
                                {
                                    OFFSET   3.088130   0.000000   0.000000
                                    CHANNELS 3 Zrotation Xrotation Yrotation
                                    JOINT LeftFinger02
                                    {
                                        OFFSET   2.639450   0.000000   0.000000
                                        CHANNELS 3 Zrotation Xrotation Yrotation
                                        End Site
                                        {
                                            OFFSET   2.582190   0.000000   0.000000
                                        }
                                    }
                                }
                            }
                            JOINT LeftFinger1
                            {
                                OFFSET   8.364480   0.000000   3.252850
                                CHANNELS 3 Zrotation Xrotation Yrotation
                                JOINT LeftFinger11
                                {
                                    OFFSET   4.646920   0.000000   0.000000
                                    CHANNELS 3 Zrotation Xrotation Yrotation
                                    JOINT LeftFinger12
                                    {
                                        OFFSET   2.323460   0.000000   0.000000
                                        CHANNELS 3 Zrotation Xrotation Yrotation
                                        End Site
                                        {
                                            OFFSET   2.273050   0.000000   0.000000
                                        }
                                    }
                                }
                            }
                            JOINT LeftFinger2
                            {
                                OFFSET   8.364490   0.000016   1.078090
                                CHANNELS 3 Zrotation Xrotation Yrotation
                                JOINT LeftFinger21
                                {
                                    OFFSET   5.111620   0.000000   0.000000
                                    CHANNELS 3 Zrotation Xrotation Yrotation
                                    JOINT LeftFinger22
                                    {
                                        OFFSET   2.788150   0.000012   0.000000
                                        CHANNELS 3 Zrotation Xrotation Yrotation
                                        End Site
                                        {
                                            OFFSET   2.727660   0.000000   0.000000
                                        }
                                    }
                                }
                            }
                            JOINT LeftFinger3
                            {
                                OFFSET   7.899780   0.000014  -1.078090
                                CHANNELS 3 Zrotation Xrotation Yrotation
                                JOINT LeftFinger31
                                {
                                    OFFSET   4.646930   0.000000   0.000000
                                    CHANNELS 3 Zrotation Xrotation Yrotation
                                    JOINT LeftFinger32
                                    {
                                        OFFSET   2.323470   0.000000   0.000000
                                        CHANNELS 3 Zrotation Xrotation Yrotation
                                        End Site
                                        {
                                            OFFSET   2.273050   0.000000   0.000000
                                        }
                                    }
                                }
                            }
                            JOINT LeftFinger4
                            {
                                OFFSET   7.435090   0.000000  -3.252850
                                CHANNELS 3 Zrotation Xrotation Yrotation
                                JOINT LeftFinger41
                                {
                                    OFFSET   3.717550   0.000000   0.000000
                                    CHANNELS 3 Zrotation Xrotation Yrotation
                                    JOINT LeftFinger42
                                    {
                                        OFFSET   1.858770   0.000000   0.000000
                                        CHANNELS 3 Zrotation Xrotation Yrotation
                                        End Site
                                        {
                                            OFFSET   1.818440   0.000000   0.000000
                                        }
                                    }
                                }
                            }
                        }
                    }
                }
            }
            JOINT RightCollar
            {
                OFFSET  -3.911900  19.017000  -0.467063
                CHANNELS 3 Zrotation Xrotation Yrotation
                JOINT RightShoulder
                {
                    OFFSET -10.383700   0.000023   0.000000
                    CHANNELS 3 Zrotation Xrotation Yrotation
                    JOINT RightElbow
                    {
                        OFFSET -26.662100   0.001246   0.001011
                        CHANNELS 3 Zrotation Xrotation Yrotation
                        JOINT RightWrist
                        {
                            OFFSET -28.869000  -0.000026  -0.000078
                            CHANNELS 3 Zrotation Xrotation Yrotation
                            JOINT RightFinger0
                            {
                                OFFSET  -2.044660  -2.323490   3.252850
                                CHANNELS 3 Zrotation Xrotation Yrotation
                                JOINT RightFinger01
                                {
                                    OFFSET  -3.088130   0.000000   0.000000
                                    CHANNELS 3 Zrotation Xrotation Yrotation
                                    JOINT RightFinger02
                                    {
                                        OFFSET  -2.639460   0.000000   0.000000
                                        CHANNELS 3 Zrotation Xrotation Yrotation
                                        End Site
                                        {
                                            OFFSET  -2.582190   0.000000   0.000000
                                        }
                                    }
                                }
                            }
                            JOINT RightFinger1
                            {
                                OFFSET  -8.364480   0.000000   3.252850
                                CHANNELS 3 Zrotation Xrotation Yrotation
                                JOINT RightFinger11
                                {
                                    OFFSET  -4.646920   0.000000   0.000000
                                    CHANNELS 3 Zrotation Xrotation Yrotation
                                    JOINT RightFinger12
                                    {
                                        OFFSET  -2.323470   0.000000   0.000000
                                        CHANNELS 3 Zrotation Xrotation Yrotation
                                        End Site
                                        {
                                            OFFSET  -2.273050   0.000000   0.000000
                                        }
                                    }
                                }
                            }
                            JOINT RightFinger2
                            {
                                OFFSET  -8.364480   0.000000   1.078090
                                CHANNELS 3 Zrotation Xrotation Yrotation
                                JOINT RightFinger21
                                {
                                    OFFSET  -5.111620   0.000000   0.000000
                                    CHANNELS 3 Zrotation Xrotation Yrotation
                                    JOINT RightFinger22
                                    {
                                        OFFSET  -2.788160   0.000000   0.000000
                                        CHANNELS 3 Zrotation Xrotation Yrotation
                                        End Site
                                        {
                                            OFFSET  -2.727660   0.000000   0.000000
                                        }
                                    }
                                }
                            }
                            JOINT RightFinger3
                            {
                                OFFSET  -7.899780   0.000000  -1.078090
                                CHANNELS 3 Zrotation Xrotation Yrotation
                                JOINT RightFinger31
                                {
                                    OFFSET  -4.646930   0.000000   0.000000
                                    CHANNELS 3 Zrotation Xrotation Yrotation
                                    JOINT RightFinger32
                                    {
                                        OFFSET  -2.323470   0.000000   0.000000
                                        CHANNELS 3 Zrotation Xrotation Yrotation
                                        End Site
                                        {
                                            OFFSET  -2.273050   0.000000   0.000000
                                        }
                                    }
                                }
                            }
                            JOINT RightFinger4
                            {
                                OFFSET  -7.435090   0.000000  -3.252850
                                CHANNELS 3 Zrotation Xrotation Yrotation
                                JOINT RightFinger41
                                {
                                    OFFSET  -3.717550   0.000000   0.000000
                                    CHANNELS 3 Zrotation Xrotation Yrotation
                                    JOINT RightFinger42
                                    {
                                        OFFSET  -1.858760   0.000000   0.000000
                                        CHANNELS 3 Zrotation Xrotation Yrotation
                                        End Site
                                        {
                                            OFFSET  -1.818440   0.000000   0.000000
                                        }
                                    }
                                }
                            }
                        }
                    }
                }
            }
        }
    }
    JOINT LeftHip
    {
        OFFSET   9.783010   0.000000   0.000000
        CHANNELS 3 Zrotation Xrotation Yrotation
        JOINT LeftKnee
        {
            OFFSET   0.000073 -41.789100   0.001749
            CHANNELS 3 Zrotation Xrotation Yrotation
            JOINT LeftAnkle
            {
                OFFSET   0.000111 -41.133200  -0.000179
                CHANNELS 3 Zrotation Xrotation Yrotation
                JOINT LeftToe
                {
                    OFFSET   0.000000  -6.358960  14.674500
                    CHANNELS 3 Zrotation Xrotation Yrotation
                    End Site
                    {
                        OFFSET   0.000000   0.000000   3.913200
                    }
                }
            }
        }
    }
    JOINT RightHip
    {
        OFFSET  -9.783010   0.000000   0.000000
        CHANNELS 3 Zrotation Xrotation Yrotation
        JOINT RightKnee
        {
            OFFSET   0.000424 -41.789200   0.005205
            CHANNELS 3 Zrotation Xrotation Yrotation
            JOINT RightAnkle
            {
                OFFSET   0.000000 -41.133200  -0.000155
                CHANNELS 3 Zrotation Xrotation Yrotation
                JOINT RightToe
                {
                    OFFSET   0.000000  -6.358960  14.674500
                    CHANNELS 3 Zrotation Xrotation Yrotation
                    End Site
                    {
                        OFFSET   0.000000   0.000000   3.913200
                    }
                }
            }
        }
    }
}
MOTION
Frames: 5
Frame Time:   0.016667
 -1.018980  89.543300   2.002410  -2.244270 -15.715600   0.416966   3.941190  10.820300  -1.723700   8.448650  21.486000  -4.334060   2.313160   2.200720  -0.088825   3.815760   4.440870  20.520700   0.924649  -1.553420   3.237130  -4.982190 -16.338800 -40.163100  38.271600  -0.325254 -79.439600 -22.311700 -15.932500 -17.105200  14.845400  32.495000 -48.575600 -81.221300  -0.005899   0.004510 -47.433400  -0.003431   0.000122  -4.905340   2.666840 -28.205100  -4.560830   0.008130   0.002552  -3.192590   0.006834   0.003227 -13.811200   4.030260 -15.738900 -13.591100   0.059416   0.049095  -9.051680   0.031093   0.040821 -79.435600  -4.916280   0.914547 -79.474900   0.001071  -0.000370 -59.606200  -0.003387  -0.001620 -77.096200  -9.753050   2.221460 -110.000000  -0.004459  -0.003353 -77.208400   0.000945  -0.002235   6.411190  -0.042037   8.938350  68.157000   8.461090   1.031680   0.481157  -9.394340  15.153800 -13.885500  -8.198700   2.509840 -39.314700  28.147200  61.458700  26.537300   0.001473  -0.003147   8.268670   0.002941  -0.000819  31.307700   9.540640  15.244200  26.662300  -0.000574  -0.001576  18.663700   0.001041  -0.003677  28.559500   3.562560   6.525800  40.628200   0.003032  -0.005455  27.058400   0.002012  -0.002149  28.084500   2.019960   3.779240  33.041400  -0.003763  -0.001177  22.005600  -0.002407  -0.001996  34.874700   0.267883   0.384326  52.313400  -0.000962  -0.003218  34.840700  -0.002434   0.003890   2.408060  17.803400   4.791480   1.358150   0.094528   2.980570  -2.164380  -2.949720  -0.279696   0.000000   0.000000   0.000000   3.606280  18.044800  -0.306672  -0.089595   1.435030  -8.391430  -2.066560  -4.783500  -1.198690  -0.000000   0.000000  -0.000000
 -1.023350  89.542900   2.017940  -2.275640 -15.729000   0.329950   3.958220  10.831800  -1.785860   8.496410  21.503200  -4.466200   2.309100   2.141720  -0.086245   3.808130   4.321910  20.413800   0.941443  -1.527620   3.244580  -4.982960 -16.429800 -40.549400  38.178100  -0.102433 -79.181700 -22.351200 -16.077000 -17.143400  14.973400  33.159400 -48.327200 -81.134700  -0.005898   0.004526 -47.375700  -0.003422   0.000158  -3.606040   2.011510 -28.850300  -3.374840   0.004556   0.002292  -2.362400   0.003724   0.002975 -18.809500   4.915220 -13.979400 -19.431100   0.050006   0.048963 -12.942500   0.022940   0.040234 -79.708200  -4.920510   0.891061 -79.746500   0.001097  -0.000404 -59.809900  -0.003461  -0.001608 -77.339900  -9.762250   2.180020 -110.000000  -0.004391  -0.003375 -77.448500   0.000929  -0.002179   6.425930  -0.056177   8.954680  68.114900   8.451890   1.043100   0.489003  -9.398340  15.134600 -13.915000  -8.230470   2.514860 -39.288200  28.190400  61.378100  26.664500   0.001456  -0.003098   8.332290   0.002948  -0.000818  31.322500   9.537030  15.230300  26.673100  -0.000540  -0.001578  18.671300   0.001044  -0.003660  28.560100   3.562710   6.519610  40.651400   0.002967  -0.005488  27.073800   0.001966  -0.002143  28.089000   2.019890   3.778420  33.075000  -0.003756  -0.001210  22.027900  -0.002420  -0.002051  34.889100   0.264728   0.379371  52.335000  -0.000972  -0.003187  34.855100  -0.002423   0.003867   2.417220  17.842800   4.808130   1.359000   0.090540   3.015760  -2.161540  -2.973530  -0.251247   0.000000   0.000000   0.000000   3.612550  18.058600  -0.294059  -0.089176   1.446240  -8.352030  -2.062970  -4.791240  -1.168270  -0.000000   0.000000  -0.000000
 -1.027520  89.542600   2.033330  -2.305850 -15.743400   0.245740   3.975470  10.844700  -1.850060   8.546070  21.523100  -4.602720   2.304420   2.078030  -0.083462   3.799710   4.193420  20.310200   0.958902  -1.505340   3.246180  -4.968310 -16.515300 -40.915600  38.123100   0.124535 -78.919200 -22.341300 -16.285700 -17.189900  15.050200  33.568200 -48.224000 -81.084100  -0.005897   0.004544 -47.342000  -0.003415   0.000188  -2.763250   1.541940 -29.123400  -2.590450   0.001604   0.002043  -1.813310   0.001107   0.002728 -23.678500   5.399430 -12.123300 -26.320400   0.033324   0.048037 -17.529400   0.009585   0.036940 -80.047400  -4.925600   0.861996 -80.084500   0.001120  -0.000437 -60.063400  -0.003534  -0.001594 -77.653800  -9.773740   2.126780 -110.000000  -0.004325  -0.003395 -77.757800   0.000913  -0.002123   6.445530  -0.074113   8.961880  68.065900   8.450530   1.062430   0.496028  -9.407790  15.115500 -13.939800  -8.257400   2.522410 -39.253800  28.239800  61.303100  26.804800   0.001441  -0.003049   8.402420   0.002955  -0.000816  31.334500   9.533350  15.218000  26.681700  -0.000506  -0.001578  18.677200   0.001046  -0.003642  28.560600   3.563100   6.513420  40.676500   0.002902  -0.005520  27.090500   0.001919  -0.002139  28.093100   2.019810   3.777600  33.105100  -0.003748  -0.001242  22.047900  -0.002432  -0.002106  34.897300   0.262937   0.376529  52.347300  -0.000981  -0.003156  34.863300  -0.002412   0.003844   2.426870  17.888400   4.827130   1.359610   0.080070   3.049690  -2.158890  -2.989440  -0.226265  -0.000000   0.000000  -0.000000   3.618260  18.072800  -0.279421  -0.088575   1.459060  -8.314080  -2.059150  -4.799790  -1.141680   0.000000   0.000000  -0.000000
 -1.030450  89.542300   2.048570  -2.335930 -15.759700   0.162331   3.994450  10.857700  -1.915430   8.599280  21.543100  -4.742050   2.299150   2.011620  -0.080657   3.790160   4.059450  20.208200   0.976609  -1.478010   3.246490  -4.920420 -16.589000 -41.247600  38.159100   0.347531 -78.641300 -22.218700 -16.659400 -17.310000  15.017700  33.364400 -48.145900 -81.076900  -0.005893   0.004560 -47.337200  -0.003406   0.000223  -2.035170   1.135170 -29.028500  -1.883390   0.000733   0.001813  -1.318370   0.000145   0.002482 -27.199500   5.375710 -10.436400 -34.258900   0.014626   0.042152 -22.798600  -0.003067   0.028616 -80.476700  -4.931820   0.825379 -80.512200   0.001142  -0.000472 -60.384200  -0.003598  -0.001572 -78.086200  -9.789120   2.053560 -110.000000  -0.004259  -0.003410 -78.183800   0.000901  -0.002060   6.474140  -0.097537   8.952050  68.005900   8.465640   1.079480   0.499529  -9.427210  15.096500 -13.961600  -8.275410   2.526560 -39.228500  28.335000  61.241400  26.974800   0.001436  -0.003013   8.487420   0.002948  -0.000791  31.348500   9.541550  15.224300  26.694500  -0.000474  -0.001578  18.686100   0.001044  -0.003623  28.558700   3.572130   6.529400  40.727000   0.002843  -0.005553  27.124100   0.001869  -0.002134  28.097100   2.030430   3.796930  33.139100  -0.003737  -0.001274  22.070600  -0.002444  -0.002160  34.902900   0.261461   0.374574  52.355700  -0.000989  -0.003124  34.868800  -0.002403   0.003822   2.438680  17.941700   4.849040   1.354930   0.058121   3.084200  -2.155400  -2.996870  -0.205618  -0.000000   0.000000   0.000000   3.620220  18.087800  -0.255332  -0.087603   1.472630  -8.277470  -2.054180  -4.806880  -1.123090  -0.000000   0.000000   0.000000
 -1.032730  89.541900   2.063700  -2.366500 -15.773500   0.075708   4.014030  10.870400  -1.980960   8.653380  21.562200  -4.881780   2.293970   1.942520  -0.077763   3.780690   3.920040  20.110800   0.994682  -1.449220   3.246790  -4.860160 -16.652800 -41.562800  38.209300   0.553497 -78.361900 -22.176000 -17.056700 -17.431400  14.968300  33.084400 -48.013600 -81.073500  -0.005888   0.004573 -47.334900  -0.003397   0.000259  -1.422980   0.783604 -28.729600  -1.297200   0.000459   0.001595  -0.908050  -0.000243   0.002245 -29.980400   5.258060  -8.957840 -41.868200   0.001229   0.032493 -27.862300  -0.010518   0.019171 -80.902500  -4.937810   0.789072 -80.936400   0.001165  -0.000502 -60.702400  -0.003660  -0.001547 -78.516000  -9.804100   1.980790 -110.000000  -0.004192  -0.003424 -78.607100   0.000886  -0.001997   6.508130  -0.122245   8.932530  67.940200   8.486950   1.094940   0.501827  -9.440810  15.086000 -13.984600  -8.285100   2.530940 -39.213300  28.450700  61.200700  27.146700   0.001432  -0.002976   8.573350   0.002941  -0.000769  31.363000   9.554710  15.233800  26.708500  -0.000441  -0.001578  18.695900   0.001042  -0.003604  28.556000   3.584960   6.552760  40.788400   0.002784  -0.005586  27.165000   0.001819  -0.002130  28.100900   2.045630   3.824420  33.175400  -0.003726  -0.001305  22.094800  -0.002456  -0.002214  34.910000   0.259610   0.372095  52.366300  -0.000997  -0.003092  34.875900  -0.002394   0.003800   2.451130  17.984800   4.872210   1.347580   0.042656   3.120240  -2.152130  -3.010640  -0.185180   0.000000   0.000000   0.000000   3.620950  18.101000  -0.228114  -0.086773   1.485730  -8.238720  -2.048700  -4.813010  -1.105820  -0.000000   0.000000   0.000000
